<svg width="8" height="12" viewBox="0 0 8 12" fill="none" xmlns="http://www.w3.org/2000/svg">
<path d="M5.30859 1.4502C4.51562 1.4502 3.85938 1.7373 3.33984 2.31152C2.82031 2.88118 2.46712 3.71061 2.28027 4.7998H5.71191V5.36035H2.22559L2.19824 6.07129V6.23535C2.19824 6.53158 2.20736 6.72982 2.22559 6.83008H5.29492V7.39062H2.2666C2.40332 8.37956 2.73828 9.15202 3.27148 9.70801C3.80924 10.2594 4.4974 10.5352 5.33594 10.5352C6.01042 10.5352 6.66439 10.387 7.29785 10.0908V10.7334C6.92871 10.8883 6.58464 10.9932 6.26562 11.0479C5.95117 11.1071 5.63216 11.1367 5.30859 11.1367C4.26953 11.1367 3.43099 10.8177 2.79297 10.1797C2.15951 9.54167 1.74707 8.61198 1.55566 7.39062H0.325195V6.83008H1.50098C1.48275 6.6569 1.47363 6.39941 1.47363 6.05762L1.50098 5.36035H0.325195V4.7998H1.58301C1.76074 3.56022 2.17773 2.5918 2.83398 1.89453C3.49023 1.19727 4.3151 0.848633 5.30859 0.848633C5.70964 0.848633 6.0765 0.88737 6.40918 0.964844C6.74186 1.04232 7.0791 1.1722 7.4209 1.35449L7.1543 1.94238C6.55273 1.61426 5.9375 1.4502 5.30859 1.4502Z" fill="#413C3C"/>
</svg>
