<svg width="10" height="10" viewBox="0 0 10 10" fill="none" xmlns="http://www.w3.org/2000/svg">
<path d="M1.39062 2.98828C1.39062 3.71484 1.47852 4.26172 1.6543 4.62891C1.83008 4.99219 2.10547 5.17383 2.48047 5.17383C3.23438 5.17383 3.61133 4.44531 3.61133 2.98828C3.61133 2.26953 3.51367 1.73047 3.31836 1.37109C3.12695 1.00781 2.84766 0.826172 2.48047 0.826172C2.10547 0.826172 1.83008 1.00781 1.6543 1.37109C1.47852 1.73047 1.39062 2.26953 1.39062 2.98828ZM4.18555 2.98828C4.18555 3.87109 4.03906 4.54297 3.74609 5.00391C3.45312 5.46094 3.03125 5.68945 2.48047 5.68945C1.96094 5.68945 1.55273 5.45508 1.25586 4.98633C0.962891 4.51367 0.816406 3.84766 0.816406 2.98828C0.816406 2.11719 0.957031 1.45312 1.23828 0.996094C1.51953 0.539062 1.93359 0.310547 2.48047 0.310547C3.02344 0.310547 3.44336 0.546875 3.74023 1.01953C4.03711 1.48828 4.18555 2.14453 4.18555 2.98828ZM6.38281 6.43359C6.38281 7.15625 6.4707 7.69922 6.64648 8.0625C6.82227 8.42188 7.09766 8.60156 7.47266 8.60156C8.22656 8.60156 8.60352 7.87891 8.60352 6.43359C8.60352 4.99219 8.22656 4.27148 7.47266 4.27148C7.09766 4.27148 6.82227 4.45117 6.64648 4.81055C6.4707 5.16602 6.38281 5.70703 6.38281 6.43359ZM9.17773 6.43359C9.17773 7.31641 9.0332 7.98828 8.74414 8.44922C8.45508 8.90625 8.03516 9.13477 7.48438 9.13477C6.95312 9.13477 6.54102 8.89844 6.24805 8.42578C5.95508 7.94922 5.80859 7.28516 5.80859 6.43359C5.80859 5.55469 5.95117 4.88867 6.23633 4.43555C6.52539 3.98242 6.94141 3.75586 7.48438 3.75586C8.01953 3.75586 8.43555 3.99023 8.73242 4.45898C9.0293 4.92773 9.17773 5.58594 9.17773 6.43359ZM7.6543 0.433594L2.90234 9H2.33984L7.0918 0.433594H7.6543Z" fill="#413C3C"/>
</svg>
